<svg xmlns="http://www.w3.org/2000/svg" xmlns:xlink="http://www.w3.org/1999/xlink" width="158.246" height="172.028" viewBox="0 0 158.246 172.028">
  <defs>
    <clipPath id="clip-path">
      <rect id="Rectangle_123" data-name="Rectangle 123" width="102.062" height="139.715" fill="#401e13"/>
    </clipPath>
  </defs>
  <g id="Group_227" data-name="Group 227" transform="translate(0 51.031) rotate(-30)" clip-path="url(#clip-path)">
    <path id="Path_1143" data-name="Path 1143" d="M97.152,81.651c-3.359-14.7-10.837-35.275-27.386-49.822C52.16,16.355,28.074,10.818,4.456,7.317l12.05-5.438A.983.983,0,1,0,15.7.086L.579,6.91A.984.984,0,0,0,.342,8.552L12.918,19.367A.984.984,0,1,0,14.2,17.875L4.188,9.265c23.312,3.456,47.058,8.9,64.279,24.041,16.155,14.2,23.473,34.366,26.768,48.783,4.241,18.559,4.556,37.928,4.861,56.659a.983.983,0,0,0,.982.967h.016a.983.983,0,0,0,.967-1c-.307-18.832-.624-38.3-4.91-57.065" transform="translate(0 0)" fill="#401e13"/>
  </g>
</svg>
