<svg xmlns="http://www.w3.org/2000/svg" xmlns:xlink="http://www.w3.org/1999/xlink" width="172.676" height="70.31" viewBox="0 0 172.676 70.31">
  <defs>
    <clipPath id="clip-path">
      <rect id="Rectangle_26" data-name="Rectangle 26" width="46.373" height="55.955" fill="#fff"/>
    </clipPath>
  </defs>
  <g id="Group_260" data-name="Group 260" transform="translate(-106 -22.69)">
    <g id="Group_115" data-name="Group 115" transform="translate(-558.921 -201.409)">
      <g id="Group_23" data-name="Group 23" transform="translate(664.921 243.697) rotate(-25)">
        <path id="Path_13" data-name="Path 13" d="M.252.094.13.263,0,.169.123,0" transform="translate(19.227 45.979)" fill="#fff"/>
        <g id="Group_22" data-name="Group 22">
          <g id="Group_21" data-name="Group 21" clip-path="url(#clip-path)">
            <path id="Path_14" data-name="Path 14" d="M39.695,39.467a23.123,23.123,0,0,1-6.774,4.769l-7.583-7.478a13.742,13.742,0,1,0-4.115.029L13.744,44.37a23.191,23.191,0,1,1,25.951-4.9" transform="translate(0 0)" fill="#fff"/>
            <path id="Path_15" data-name="Path 15" d="M9.365,0A9.365,9.365,0,1,0,18.73,9.365,9.365,9.365,0,0,0,9.365,0m0,14.111a4.746,4.746,0,1,1,4.746-4.746,4.746,4.746,0,0,1-4.746,4.746" transform="translate(13.822 37.225)" fill="#fff"/>
            <path id="Path_16" data-name="Path 16" d="M7.478.069A11.445,11.445,0,0,0,11.76.012c1.353-.358,7.946,7.253,7.946,7.253a11.2,11.2,0,0,1-4.576,1.428c-1.425-.145-2.144-4.361-2.144-4.361l-7.111.55S3.493,8.693,2.336,8.421A17.018,17.018,0,0,1,0,7.652Z" transform="translate(13.744 36.718)" fill="#fff"/>
          </g>
        </g>
      </g>
      <circle id="Ellipse_16" data-name="Ellipse 16" cx="6.232" cy="6.232" r="6.232" transform="translate(689.301 248.682)" fill="#fff"/>
    </g>
    <text id="uatro" transform="translate(163.676 70)" fill="#fff" font-size="32" font-family="Bungee-Regular, Bungee"><tspan x="0" y="0">uatro</tspan></text>
  </g>
</svg>
